<svg xmlns="http://www.w3.org/2000/svg" xmlns:xlink="http://www.w3.org/1999/xlink" version="1.1" class="marks" width="248" height="264" viewBox="0 0 248 264"><rect width="248" height="264" fill="white"/><g fill="none" stroke-miterlimit="10" transform="translate(41,27)"><g class="mark-group role-frame root" role="graphics-object" aria-roledescription="group mark container"><g transform="translate(0,0)"><path class="background" aria-hidden="true" d="M0.5,0.5h200v200h-200Z" stroke="#ddd"/><g><g class="mark-group role-axis" aria-hidden="true"><g transform="translate(0.5,200.5)"><path class="background" aria-hidden="true" d="M0,0h0v0h0Z" pointer-events="none"/><g><g class="mark-rule role-axis-grid" pointer-events="none"><line transform="translate(0,-200)" x2="0" y2="200" stroke="#ddd" stroke-width="1" opacity="1"/><line transform="translate(33,-200)" x2="0" y2="200" stroke="#ddd" stroke-width="1" opacity="1"/><line transform="translate(67,-200)" x2="0" y2="200" stroke="#ddd" stroke-width="1" opacity="1"/><line transform="translate(100,-200)" x2="0" y2="200" stroke="#ddd" stroke-width="1" opacity="1"/><line transform="translate(133,-200)" x2="0" y2="200" stroke="#ddd" stroke-width="1" opacity="1"/><line transform="translate(167,-200)" x2="0" y2="200" stroke="#ddd" stroke-width="1" opacity="1"/><line transform="translate(200,-200)" x2="0" y2="200" stroke="#ddd" stroke-width="1" opacity="1"/></g></g><path class="foreground" aria-hidden="true" d="" pointer-events="none" display="none"/></g></g><g class="mark-group role-axis" aria-hidden="true"><g transform="translate(0.5,0.5)"><path class="background" aria-hidden="true" d="M0,0h0v0h0Z" pointer-events="none"/><g><g class="mark-rule role-axis-grid" pointer-events="none"><line transform="translate(0,200)" x2="200" y2="0" stroke="#ddd" stroke-width="1" opacity="1"/><line transform="translate(0,160)" x2="200" y2="0" stroke="#ddd" stroke-width="1" opacity="1"/><line transform="translate(0,120)" x2="200" y2="0" stroke="#ddd" stroke-width="1" opacity="1"/><line transform="translate(0,80)" x2="200" y2="0" stroke="#ddd" stroke-width="1" opacity="1"/><line transform="translate(0,40)" x2="200" y2="0" stroke="#ddd" stroke-width="1" opacity="1"/><line transform="translate(0,0)" x2="200" y2="0" stroke="#ddd" stroke-width="1" opacity="1"/></g></g><path class="foreground" aria-hidden="true" d="" pointer-events="none" display="none"/></g></g><g class="mark-group role-axis" role="graphics-symbol" aria-roledescription="axis" aria-label="X-axis titled 'stepSize' for a linear scale with values from 0 to 30"><g transform="translate(0.5,200.5)"><path class="background" aria-hidden="true" d="M0,0h0v0h0Z" pointer-events="none"/><g><g class="mark-rule role-axis-tick" pointer-events="none"><line transform="translate(0,0)" x2="0" y2="5" stroke="#888" stroke-width="1" opacity="1"/><line transform="translate(33,0)" x2="0" y2="5" stroke="#888" stroke-width="1" opacity="1"/><line transform="translate(67,0)" x2="0" y2="5" stroke="#888" stroke-width="1" opacity="1"/><line transform="translate(100,0)" x2="0" y2="5" stroke="#888" stroke-width="1" opacity="1"/><line transform="translate(133,0)" x2="0" y2="5" stroke="#888" stroke-width="1" opacity="1"/><line transform="translate(167,0)" x2="0" y2="5" stroke="#888" stroke-width="1" opacity="1"/><line transform="translate(200,0)" x2="0" y2="5" stroke="#888" stroke-width="1" opacity="1"/></g><g class="mark-text role-axis-label" pointer-events="none"><text text-anchor="start" transform="translate(0,15)" font-family="sans-serif" font-size="10px" fill="#000" opacity="1">0</text><text text-anchor="middle" transform="translate(33.33333333333333,15)" font-family="sans-serif" font-size="10px" fill="#000" opacity="1">5</text><text text-anchor="middle" transform="translate(66.66666666666666,15)" font-family="sans-serif" font-size="10px" fill="#000" opacity="1">10</text><text text-anchor="middle" transform="translate(100,15)" font-family="sans-serif" font-size="10px" fill="#000" opacity="1">15</text><text text-anchor="middle" transform="translate(133.33333333333331,15)" font-family="sans-serif" font-size="10px" fill="#000" opacity="1">20</text><text text-anchor="middle" transform="translate(166.66666666666669,15)" font-family="sans-serif" font-size="10px" fill="#000" opacity="1">25</text><text text-anchor="end" transform="translate(200,15)" font-family="sans-serif" font-size="10px" fill="#000" opacity="1">30</text></g><g class="mark-rule role-axis-domain" pointer-events="none"><line transform="translate(0,0)" x2="200" y2="0" stroke="#888" stroke-width="1" opacity="1"/></g><g class="mark-text role-axis-title" pointer-events="none"><text text-anchor="middle" transform="translate(100,30)" font-family="sans-serif" font-size="11px" font-weight="bold" fill="#000" opacity="1">stepSize</text></g></g><path class="foreground" aria-hidden="true" d="" pointer-events="none" display="none"/></g></g><g class="mark-group role-axis" role="graphics-symbol" aria-roledescription="axis" aria-label="Y-axis titled 'acceptance' for a linear scale with values from 0.0 to 1.0"><g transform="translate(0.5,0.5)"><path class="background" aria-hidden="true" d="M0,0h0v0h0Z" pointer-events="none"/><g><g class="mark-rule role-axis-tick" pointer-events="none"><line transform="translate(0,200)" x2="-5" y2="0" stroke="#888" stroke-width="1" opacity="1"/><line transform="translate(0,160)" x2="-5" y2="0" stroke="#888" stroke-width="1" opacity="1"/><line transform="translate(0,120)" x2="-5" y2="0" stroke="#888" stroke-width="1" opacity="1"/><line transform="translate(0,80)" x2="-5" y2="0" stroke="#888" stroke-width="1" opacity="1"/><line transform="translate(0,40)" x2="-5" y2="0" stroke="#888" stroke-width="1" opacity="1"/><line transform="translate(0,0)" x2="-5" y2="0" stroke="#888" stroke-width="1" opacity="1"/></g><g class="mark-text role-axis-label" pointer-events="none"><text text-anchor="end" transform="translate(-7,203)" font-family="sans-serif" font-size="10px" fill="#000" opacity="1">0.0</text><text text-anchor="end" transform="translate(-7,163)" font-family="sans-serif" font-size="10px" fill="#000" opacity="1">0.2</text><text text-anchor="end" transform="translate(-7,123)" font-family="sans-serif" font-size="10px" fill="#000" opacity="1">0.4</text><text text-anchor="end" transform="translate(-7,83)" font-family="sans-serif" font-size="10px" fill="#000" opacity="1">0.6</text><text text-anchor="end" transform="translate(-7,42.99999999999999)" font-family="sans-serif" font-size="10px" fill="#000" opacity="1">0.8</text><text text-anchor="end" transform="translate(-7,3)" font-family="sans-serif" font-size="10px" fill="#000" opacity="1">1.0</text></g><g class="mark-rule role-axis-domain" pointer-events="none"><line transform="translate(0,200)" x2="0" y2="-200" stroke="#888" stroke-width="1" opacity="1"/></g><g class="mark-text role-axis-title" pointer-events="none"><text text-anchor="middle" transform="translate(-24.9013671875,100) rotate(-90) translate(0,-2)" font-family="sans-serif" font-size="11px" font-weight="bold" fill="#000" opacity="1">acceptance</text></g></g><path class="foreground" aria-hidden="true" d="" pointer-events="none" display="none"/></g></g><g class="mark-line role-mark marks" role="graphics-object" aria-roledescription="line mark container"><path aria-label="stepSize: 0.10000000149; acceptance: 0.9847" role="graphics-symbol" aria-roledescription="line mark" d="M0.667,3.06L1.333,7.76L2,13.18L2.667,15.34L3.333,20.04L4,24.34L4.667,28.24L5.333,30.52L6,35.36L6.667,39.44L7.333,44.68L8,45.24L8.667,50.6L9.333,54.02L10,57.4L10.667,61.14L11.333,63.44L12,66.66L12.667,71.06L13.333,71.62L14,74.22L14.667,80L15.333,82.66L16,87.56L16.667,88.2L17.333,89.64L18,93.1L18.667,96.7L19.333,98.08L20,102.28L20.667,105.46L21.333,104.9L22,108.24L22.667,110.42L23.333,112.64L24,114.54L24.667,116.46L25.333,117.22L26,118.32L26.667,122.94L27.333,124.3L28,125.6L28.667,127.2L29.333,129.94L30,128.52L30.667,131.28L31.333,133.24L32,133.82L32.667,135.88L33.333,136.52L34,137.6L34.667,138.96L35.333,139.08L36,140.46L36.667,142.06L37.333,143.32L38,142.66L38.667,145.92L39.333,143.48L40,146.18L40.667,148.92L41.333,149.28L42,148.26L42.667,150.16L43.333,150.26L44,152.48L44.667,152.6L45.333,154.56L46,152.64L46.667,154.84L47.333,155.3L48,155.58L48.667,156.18L49.333,155.76L50,158.2L50.667,158.96L51.333,159.36L52,159.18L52.667,159.38L53.333,160.84L54,160.12L54.667,163.02L55.333,160.86L56,160.46L56.667,162.14L57.333,162.18L58,162.68L58.667,162.42L59.333,164.66L60,166.04L60.667,165.48L61.333,166.54L62,163.8L62.667,165.24L63.333,165.46L64,167.3L64.667,166.42L65.333,166.82L66,167.3L66.667,168.02L67.333,168L68,169.4L68.667,169.2L69.333,168.84L70,168.98L70.667,171.08L71.333,170L72,170.74L72.667,169.82L73.333,171.28L74,172.52L74.667,171.38L75.333,172.14L76,172.28L76.667,171.62L77.333,172.92L78,172.2L78.667,172.5L79.333,172.7L80,173.3L80.667,173.8L81.333,174.78L82,174.8L82.667,174.9L83.333,174.34L84,175.52L84.667,175.1L85.333,175.1L86,175.14L86.667,176.14L87.333,176.96L88,175.5L88.667,176.1L89.333,175.96L90,175.92L90.667,177.14L91.333,176.72L92,178.54L92.667,176.68L93.333,176.66L94,177.6L94.667,176.94L95.333,177.04L96,177.68L96.667,177.88L97.333,177.9L98,178.22L98.667,179.26L99.333,177.48L100,178.3L100.667,178.98L101.333,178.02L102,179.4L102.667,178.6L103.333,178.84L104,179.74L104.667,179.5L105.333,180.5L106,180.3L106.667,179.16L107.334,180.6L108,180.34L108.667,180.58L109.334,180.4L110,179.9L110.667,181.12L111.334,180.9L112,180.36L112.667,181.1L113.334,182.22L114,181.34L114.667,181.28L115.334,182.28L116,181.62L116.667,182.1L117.334,182.04L118,182.64L118.667,181.78L119.334,183.12L120,182.62L120.667,182.22L121.334,182.18L122,183.12L122.667,182.72L123.334,181.86L124,181.92L124.667,183.28L125.334,183.1L126,182.06L126.667,182.6L127.334,183.28L128,184.34L128.667,183.8L129.334,183.98L130,182.8L130.667,183.22L131.334,184.54L132,184.06L132.667,183.68L133.334,183.98L134,183.78L134.667,183.92L135.334,183.44L136,183.7L136.667,184.78L137.334,184.26L138,185.66L138.667,184.56L139.334,183.74L140,184.44L140.667,184.82L141.334,184.68L142,185.82L142.667,184.7L143.334,185.4L144,184.82L144.667,184.96L145.334,185.06L146,185.32L146.667,185.22L147.334,185.16L148,185.36L148.667,186.16L149.334,185.54L150,185.44L150.667,185.22L151.334,185.8L152,185.18L152.667,185.82L153.334,185.96L154,185.94L154.667,186.68L155.334,186.72L156,186.94L156.667,186.44L157.334,187.06L158,186.74L158.667,186.2L159.334,186.38L160,185.72L160.667,185.76L161.334,186.94L162,186.78L162.667,185.98L163.334,187.3L164,186.2L164.667,187.9L165.334,186.8L166,187.42L166.667,187.2L167.334,187.4L168,187.32L168.667,187.88L169.334,188.36L170,187.06L170.667,186.74L171.334,187.32L172,188.02L172.667,188.24L173.334,187.76L174,187.2L174.667,188.3L175.334,188.42L176,187.46L176.667,187.7L177.334,188.22L178,188L178.667,187.22L179.334,187.94L180,188.12L180.667,188.78L181.334,188.12L182,189.6L182.667,188.5L183.334,189.22L184,188.46L184.667,188.1L185.334,188.06L186,188.96L186.667,188.12L187.334,187.84L188,188.74L188.667,187.48L189.334,188.7L190,188.82L190.667,188.92L191.334,189.04L192,189.56L192.667,188.9L193.334,188.9L194,188.2L194.667,189.08L195.334,190.06L196.001,189L196.667,188.74L197.334,188.92L198.001,188.8L198.667,189.34L199.334,189.4" stroke="#4c78a8" stroke-width="2"/></g><g class="mark-group role-title"><g transform="translate(100,-22)"><path class="background" aria-hidden="true" d="M0,0h0v0h0Z" pointer-events="none"/><g><g class="mark-text role-title-text" role="graphics-symbol" aria-roledescription="title" aria-label="Title text 'Acceptance rate over step size'" pointer-events="none"><text text-anchor="middle" transform="translate(0,10)" font-family="sans-serif" font-size="13px" font-weight="bold" fill="#000" opacity="1">Acceptance rate over step size</text></g></g><path class="foreground" aria-hidden="true" d="" pointer-events="none" display="none"/></g></g></g><path class="foreground" aria-hidden="true" d="" display="none"/></g></g></g></svg>